<svg width="21" height="20" viewBox="0 0 21 20" fill="none" xmlns="http://www.w3.org/2000/svg">
<path d="M2.9162 7.5H18.7495M9.1662 2.5L7.49953 7.5L10.8329 17.0833L14.1662 7.5L12.4995 2.5M11.345 16.8854L18.8105 7.92679C18.9371 7.77496 19.0003 7.69905 19.0245 7.6143C19.0458 7.53959 19.0458 7.46041 19.0245 7.38569C19.0003 7.30095 18.9371 7.22504 18.8105 7.07321L15.1994 2.73988C15.126 2.6517 15.0892 2.60762 15.0442 2.57592C15.0043 2.54784 14.9597 2.52698 14.9126 2.51431C14.8594 2.5 14.8021 2.5 14.6873 2.5H6.97845C6.86367 2.5 6.80628 2.5 6.7531 2.51431C6.70598 2.52698 6.66146 2.54784 6.62155 2.57592C6.57652 2.60762 6.53978 2.6517 6.4663 2.73988L2.85519 7.07321C2.72867 7.22504 2.6654 7.30095 2.64123 7.38569C2.61992 7.46041 2.61992 7.53959 2.64123 7.6143C2.6654 7.69904 2.72867 7.77496 2.85519 7.92679L10.3207 16.8854C10.4966 17.0965 10.5845 17.202 10.6898 17.2405C10.7822 17.2743 10.8835 17.2743 10.9759 17.2405C11.0812 17.202 11.1691 17.0965 11.345 16.8854Z" stroke="#1F180F" stroke-width="1.5" stroke-linecap="round" stroke-linejoin="round"/>
</svg>
