<svg width="32" height="32" viewBox="0 0 32 32" fill="none" xmlns="http://www.w3.org/2000/svg">
<path d="M15.915 31.3999C24.4671 31.3999 31.3999 24.4671 31.3999 15.915C31.3999 7.36299 24.4671 0.430176 15.915 0.430176C7.36299 0.430176 0.430176 7.36299 0.430176 15.915C0.430176 24.4671 7.36299 31.3999 15.915 31.3999Z" fill="#F7931A"/>
<path d="M24.1479 13.7946C24.4902 11.5179 22.7423 10.2975 20.3462 9.48216L21.1241 6.40036L19.2259 5.93373L18.4686 8.93349C17.9707 8.81042 17.4573 8.69248 16.949 8.57967L17.7114 5.5594L15.8131 5.09277L15.0352 8.17457C14.6202 8.08227 14.2157 7.98997 13.8215 7.89255V7.88229L11.2075 7.23619L10.7044 9.24116C10.7044 9.24116 12.11 9.55908 12.084 9.57959C12.8516 9.76932 12.9917 10.2718 12.9657 10.6718L12.0788 14.1792C12.1307 14.1946 12.1981 14.21 12.2759 14.2408L12.0736 14.1895L10.8341 19.107C10.7407 19.3378 10.5021 19.6865 9.96273 19.5531C9.98347 19.5788 8.58311 19.2147 8.58311 19.2147L7.63916 21.3633L10.1183 21.9683C10.5799 22.0811 11.026 22.1991 11.472 22.3119L10.6888 25.4296L12.5819 25.8962L13.3599 22.8144C13.8786 22.9529 14.3817 23.0811 14.8692 23.2041L14.0964 26.2705L15.9947 26.7372L16.7778 23.6246C20.0142 24.2297 22.4467 23.9835 23.4685 21.0915C24.2931 18.7635 23.427 17.42 21.7258 16.5431C22.9654 16.2662 23.8989 15.4612 24.1479 13.7946ZM19.8119 19.8044C19.2259 22.1324 15.2582 20.8761 13.9719 20.5582L15.0144 16.4303C16.3007 16.7482 20.424 17.3738 19.8119 19.8044ZM20.398 13.7639C19.8638 15.8816 16.56 14.8048 15.4916 14.5433L16.4355 10.8C17.5091 11.0615 20.9582 11.5538 20.398 13.7639Z" fill="white"/>
</svg>
