<svg width="33" height="32" viewBox="0 0 33 32" fill="none" xmlns="http://www.w3.org/2000/svg">
<path d="M16.4951 32.0025C25.2847 32.0025 32.4101 24.8396 32.4101 16.0037C32.4101 7.16779 25.2847 0.00488281 16.4951 0.00488281C7.70547 0.00488281 0.580078 7.16779 0.580078 16.0037C0.580078 24.8396 7.70547 32.0025 16.4951 32.0025Z" fill="#627EEA"/>
<path d="M16.9905 4.00464V12.874L24.4477 16.2237L16.9905 4.00464Z" fill="white" fill-opacity="0.602"/>
<path d="M16.9904 4.00464L9.53223 16.2237L16.9904 12.874V4.00464Z" fill="white"/>
<path d="M16.9905 21.9715V27.9981L24.4526 17.6199L16.9905 21.9715Z" fill="white" fill-opacity="0.602"/>
<path d="M16.9904 27.9981V21.9705L9.53223 17.6199L16.9904 27.9981Z" fill="white"/>
<path d="M16.9905 20.5764L24.4477 16.2237L16.9905 12.876V20.5764Z" fill="white" fill-opacity="0.2"/>
<path d="M9.53223 16.2237L16.9904 20.5764V12.876L9.53223 16.2237Z" fill="white" fill-opacity="0.602"/>
</svg>
