<svg width="33" height="33" viewBox="0 0 33 33" fill="none" xmlns="http://www.w3.org/2000/svg">
<path d="M16.7451 32.23C25.2972 32.23 32.23 25.2972 32.23 16.7451C32.23 8.19306 25.2972 1.26025 16.7451 1.26025C8.19306 1.26025 1.26025 8.19306 1.26025 16.7451C1.26025 25.2972 8.19306 32.23 16.7451 32.23Z" fill="#142528"/>
<path d="M16.7431 7.19604L16.6179 7.62131V19.9604L16.7431 20.0854L22.4707 16.6997L16.7431 7.19604Z" fill="#B7B7B7"/>
<path d="M16.7433 7.19604L11.0156 16.6997L16.7433 20.0854V14.0963V7.19604Z" fill="white"/>
<path d="M16.7432 21.1695L16.6726 21.2556V25.6509L16.7432 25.8569L22.4742 17.7856L16.7432 21.1695Z" fill="#939090"/>
<path d="M16.7433 25.8569V21.1695L11.0156 17.7856L16.7433 25.8569Z" fill="white"/>
<path d="M16.7432 20.0853L22.4707 16.6996L16.7432 14.0962V20.0853Z" fill="#939090"/>
<path d="M11.0156 16.6996L16.7433 20.0853V14.0962L11.0156 16.6996Z" fill="#B1B1B1"/>
<path d="M10.0926 5.25439L11.9069 7.0687C11.1005 7.47188 9.85068 8.52015 8.88305 9.48778C7.91542 10.4554 6.66556 11.9069 6.46397 12.5116L4.64966 10.6973L10.0926 5.25439Z" fill="white"/>
<path d="M23.3976 5.85913L21.5833 7.67344C22.3897 8.07662 23.6396 9.12489 24.6072 10.0925C25.5748 11.0602 26.8247 12.5116 27.0263 13.1164L28.8406 11.3021L23.3976 5.85913Z" fill="white"/>
<path d="M10.0926 28.2356L11.9069 26.4213C11.1005 26.0181 9.85068 24.9698 8.88305 24.0022C7.91542 23.0346 6.66556 21.5831 6.46397 20.9784L4.64966 22.7927L10.0926 28.2356Z" fill="white"/>
<path d="M23.3976 27.6309L21.5833 25.8165C22.3897 25.4134 23.6396 24.3651 24.6072 23.3975C25.5748 22.4298 26.8247 20.9784 27.0263 20.3736L28.8406 22.1879L23.3976 27.6309Z" fill="white"/>
</svg>
