<svg width="33" height="33" viewBox="0 0 33 33" fill="none" xmlns="http://www.w3.org/2000/svg">
<path fill-rule="evenodd" clip-rule="evenodd" d="M16.5749 32.6601C20.7958 32.6601 24.8438 30.9833 27.8285 27.9987C30.8131 25.014 32.4899 20.9661 32.4899 16.7451C32.4899 12.5242 30.8131 8.47613 27.8285 5.49148C24.8438 2.50683 20.7958 0.830078 16.5749 0.830078C12.354 0.830078 8.30594 2.50683 5.3213 5.49148C2.33667 8.47613 0.659912 12.5242 0.659912 16.7451C0.659912 20.9661 2.33667 25.014 5.3213 27.9987C8.30594 30.9833 12.354 32.6601 16.5749 32.6601Z" fill="url(#paint0_linear_6017_4883)"/>
<path d="M9.97095 17.4961L16.5756 21.3776L23.169 17.4961L16.5756 26.7373L9.97095 17.4961Z" fill="white"/>
<path d="M9.97095 17.4961L16.5756 21.3776V26.7373L9.97095 17.4961Z" fill="#CFCEEC"/>
<path d="M16.5756 19.9333L9.97095 16.0517L16.5756 5.72729L23.1803 16.0517L16.5756 19.9333Z" fill="white"/>
<path d="M16.5756 19.9333L9.97095 16.0517L16.5756 5.72729V19.9333Z" fill="#CFCEEC"/>
<defs>
<linearGradient id="paint0_linear_6017_4883" x1="30.0063" y1="3.31548" x2="5.13994" y2="28.2007" gradientUnits="userSpaceOnUse">
<stop stop-color="#ED3434"/>
<stop offset="1" stop-color="#B32929"/>
</linearGradient>
</defs>
</svg>
