<svg width="32" height="33" viewBox="0 0 32 33" fill="none" xmlns="http://www.w3.org/2000/svg">
<g clip-path="url(#clip0_6017_4940)">
<path d="M16.0649 32.6601C13.9168 32.6601 11.8327 32.239 9.86981 31.4092C7.97434 30.6074 6.27313 29.4598 4.8111 27.9989C3.35019 26.538 2.20258 24.8356 1.40082 22.9402C0.570994 20.9773 0.149902 18.8932 0.149902 16.7451C0.149902 14.597 0.570994 12.5128 1.40082 10.55C2.20258 8.65451 3.35019 6.95331 4.8111 5.49128C6.27313 4.03037 7.97434 2.88276 9.86981 2.081C11.8327 1.25117 13.9168 0.830078 16.0649 0.830078C18.213 0.830078 20.2971 1.25117 22.26 2.081C24.1555 2.88276 25.8567 4.03037 27.3187 5.49128C28.7796 6.95218 29.9272 8.65451 30.729 10.55C31.5588 12.5128 31.9799 14.597 31.9799 16.7451C31.9799 18.8932 31.5588 20.9773 30.729 22.9402C29.9272 24.8356 28.7796 26.5369 27.3187 27.9989C25.8578 29.4598 24.1555 30.6074 22.26 31.4092C20.2971 32.2401 18.213 32.6601 16.0649 32.6601Z" fill="white"/>
<path d="M16.0649 31.8167C24.3887 31.8167 31.1366 25.0689 31.1366 16.745C31.1366 8.42117 24.3887 1.67334 16.0649 1.67334C7.74099 1.67334 0.993164 8.42117 0.993164 16.745C0.993164 25.0689 7.74099 31.8167 16.0649 31.8167Z" fill="black"/>
<path d="M16.4353 10.75C18.4487 10.9296 20.0331 12.5972 20.0825 14.6453L23.1716 15.9288L21.5614 13.3035L24.9851 9.87972L22.9392 7.83378L20.0062 10.7679L16.4364 4.94678V10.75H16.4353Z" fill="white"/>
<path d="M20.0297 15.4077C19.7333 17.1909 18.26 18.5754 16.4353 18.7394V20.8594L23.2334 16.7395L20.0297 15.4077Z" fill="white"/>
<path d="M12.1177 15.4077L8.91406 16.7384L15.7122 20.8583V18.7383C13.8874 18.5754 12.4142 17.1909 12.1177 15.4077Z" fill="white"/>
<path d="M23.157 18.9001L16.4353 22.9741V28.3696L19.201 24.472L22.088 27.359L24.134 25.3131L20.9 22.0791L23.157 18.9001Z" fill="white"/>
<path d="M15.7121 22.9741L8.99036 18.9001L11.2474 22.0791L8.01343 25.3131L10.0594 27.359L12.9464 24.4731L15.7121 28.3685V22.9741Z" fill="white"/>
<path d="M8.97585 15.93L12.065 14.6465C12.1144 12.5983 13.6988 10.9308 15.7122 10.7511V4.94678L12.1425 10.7679L9.20829 7.83378L7.16235 9.88084L10.5861 13.3046L8.97585 15.93Z" fill="white"/>
<path d="M16.2151 14.2838C15.2236 13.9795 15.2236 13.8111 15.2236 13.6752C15.2236 13.4866 15.5088 13.2261 16.0445 13.2261C16.3611 13.2261 16.8934 13.3047 16.8934 13.8347H17.858C17.858 12.8937 17.1292 12.2615 16.0445 12.2615C14.8845 12.2615 14.259 12.9902 14.259 13.6752C14.259 14.6117 15.081 14.9441 15.9254 15.2046C16.917 15.5089 16.9226 15.6796 16.9226 15.8155C16.9226 16.0041 16.6374 16.2646 16.1017 16.2646C15.7839 16.2646 15.2528 16.186 15.2528 15.656H14.2882C14.2882 16.597 15.017 17.2292 16.1017 17.2292C17.2617 17.2292 17.8872 16.5005 17.8872 15.8155C17.8883 14.8779 17.0607 14.5432 16.2151 14.2838Z" fill="white"/>
</g>
<defs>
<clipPath id="clip0_6017_4940">
<rect width="31.83" height="31.83" fill="white" transform="translate(0.149902 0.830078)"/>
</clipPath>
</defs>
</svg>
