<svg width="33" height="32" viewBox="0 0 33 32" fill="none" xmlns="http://www.w3.org/2000/svg">
<circle cx="16.215" cy="15.915" r="15.2784" fill="url(#paint0_linear_6017_4551)" stroke="#F7931A" stroke-width="1.2733"/>
<path d="M15.7239 5.30542L14.938 8.25264L11.4013 7.27023L10.9101 9.13681C11.1066 9.16956 11.6174 9.27435 12.089 9.43153C12.6784 9.62801 13.0714 9.92274 13.0714 10.3157C13.0714 10.6301 12.7439 11.6911 12.5802 12.1823C12.7439 12.3788 13.1893 12.8307 13.6609 13.0664C14.1324 13.3022 15.1017 13.6231 15.5274 13.7541L16.3134 10.7087C16.8373 10.8396 18.1406 11.2195 19.1623 11.6911C20.184 12.1626 20.112 13.4594 19.9483 14.0488C20.243 14.0816 20.9503 14.1864 21.4219 14.3436C21.8934 14.5008 22.6663 14.9985 22.9937 15.2277C23.3539 14.933 23.9761 13.931 23.5832 12.2805C23.1902 10.6301 21.0617 9.759 20.0465 9.52977L20.7342 6.48431L18.9659 6.09135L18.2782 8.94033L16.8046 8.64561L17.4922 5.79662L15.7239 5.30542Z" fill="#F7931A"/>
<path d="M11.8925 15.1295C12.0497 14.8151 12.1545 14.0816 12.1872 13.7541C12.8749 14.7365 13.8573 15.1295 15.1345 15.5225C16.4116 15.9154 17.5905 15.7189 19.3588 15.8172C21.1271 15.9154 22.0113 16.6031 22.7972 17.5855C23.5832 18.5679 23.092 19.8451 22.8955 20.7292C22.6008 19.7468 21.7166 18.8626 19.9483 17.9785C18.1799 17.0943 16.7063 17.2908 14.7415 17.0943C13.1696 16.9371 11.9253 16.2429 11.4996 15.9154L11.8925 15.1295Z" fill="#F7931A"/>
<path d="M10.6154 19.2556C11.0084 19.177 11.2376 18.044 11.3031 17.4873C11.4996 17.651 12.0104 18.0571 12.482 18.3714C12.9535 18.6858 13.8573 18.8299 14.2503 18.8626L13.7591 20.3363C14.0211 20.4017 14.9773 20.5917 16.7063 20.8275C18.4354 21.0632 19.2606 20.1398 19.4571 19.6486C19.5553 19.6813 19.9679 19.8647 20.8324 20.3363C21.6969 20.8078 22.175 21.5806 22.306 21.9081C21.9786 22.3338 20.9503 23.2049 19.4571 23.2835C17.9638 23.3621 16.9355 23.1197 16.6081 22.9888L15.8221 26.0342L14.0538 25.543L14.8397 22.5958L13.3661 22.3011L12.5802 25.3465L10.7136 24.8553L11.696 21.8099L7.96289 20.8275L8.84706 18.7644C9.27277 18.9609 10.2224 19.3342 10.6154 19.2556Z" fill="#F7931A"/>
<defs>
<linearGradient id="paint0_linear_6017_4551" x1="16.215" y1="0" x2="16.215" y2="31.83" gradientUnits="userSpaceOnUse">
<stop stop-color="#0A0E16"/>
<stop offset="1" stop-color="#192242"/>
</linearGradient>
</defs>
</svg>
