<svg width="32" height="33" viewBox="0 0 32 33" fill="none" xmlns="http://www.w3.org/2000/svg">
<path d="M15.915 32.23C24.4671 32.23 31.3999 25.2972 31.3999 16.7451C31.3999 8.19306 24.4671 1.26025 15.915 1.26025C7.36299 1.26025 0.430176 8.19306 0.430176 16.7451C0.430176 25.2972 7.36299 32.23 15.915 32.23Z" fill="#2C5CE4"/>
<path d="M15.9151 5.92285L9.54907 16.7451C10.6101 17.1695 13.3687 17.6363 15.9151 16.1085C18.4615 14.5806 21.2201 15.4719 22.2811 16.1085L15.9151 5.92285Z" fill="#7591F2"/>
<path d="M15.915 28.6191L22.281 17.7969C21.22 17.3725 18.4614 16.9057 15.915 18.4335C13.3686 19.9614 10.61 19.0701 9.54901 18.4335L15.915 28.6191Z" fill="#7591F2"/>
<mask id="mask0_6017_4857" style="mask-type:alpha" maskUnits="userSpaceOnUse" x="9" y="17" width="14" height="12">
<path d="M15.915 28.6191L22.281 17.7969C21.22 17.3725 18.4614 16.9057 15.915 18.4335C13.3686 19.9614 10.61 19.0701 9.54901 18.4335L15.915 28.6191Z" fill="#D9D9D9"/>
</mask>
<g mask="url(#mask0_6017_4857)">
<rect x="8.27588" y="2.10327" width="7.6392" height="26.7372" fill="white"/>
</g>
<mask id="mask1_6017_4857" style="mask-type:alpha" maskUnits="userSpaceOnUse" x="9" y="5" width="14" height="13">
<path d="M15.9151 5.92285L9.54907 16.7451C10.6101 17.1695 13.3687 17.6363 15.9151 16.1085C18.4615 14.5806 21.2201 15.4719 22.2811 16.1085L15.9151 5.92285Z" fill="#D9D9D9"/>
</mask>
<g mask="url(#mask1_6017_4857)">
<rect x="8.27588" y="2.10327" width="7.6392" height="26.7372" fill="white"/>
</g>
</svg>
