<svg width="33" height="32" viewBox="0 0 33 32" fill="none" xmlns="http://www.w3.org/2000/svg">
<path d="M16.7451 31.83C25.5647 31.83 32.6601 24.7346 32.6601 15.915C32.6601 7.09539 25.5647 0 16.7451 0C7.92546 0 0.830078 7.09539 0.830078 15.915C0.830078 24.7346 7.92546 31.83 16.7451 31.83Z" fill="#2775CA"/>
<path d="M21.1219 18.4351C21.1219 16.1142 19.7293 15.3184 16.9442 14.9869C14.9548 14.7216 14.557 14.1912 14.557 13.2627C14.557 12.3342 15.2201 11.7376 16.5463 11.7376C17.74 11.7376 18.4031 12.1354 18.7347 13.1301C18.801 13.3291 19 13.4616 19.1989 13.4616H20.2598C20.5251 13.4616 20.724 13.2627 20.724 12.9976V12.9312C20.4587 11.4723 19.2651 10.345 17.74 10.2124V8.62094C17.74 8.35564 17.541 8.1567 17.2095 8.09033H16.2148C15.9495 8.09033 15.7506 8.28927 15.6842 8.62094V10.1461C13.6949 10.4114 12.435 11.7376 12.435 13.3954C12.435 15.5838 13.7612 16.4457 16.5463 16.7774C18.4031 17.1089 19 17.5068 19 18.5678C19 19.6289 18.0715 20.3583 16.8116 20.3583C15.0874 20.3583 14.4906 19.6287 14.2917 18.634C14.2255 18.3689 14.0265 18.2361 13.8276 18.2361H12.7002C12.435 18.2361 12.2361 18.4351 12.2361 18.7004V18.7668C12.5012 20.4245 13.5623 21.6181 15.7506 21.9498V23.5413C15.7506 23.8064 15.9495 24.0053 16.281 24.0717H17.2757C17.541 24.0717 17.74 23.8728 17.8063 23.5413V21.9498C19.7957 21.6181 21.1219 20.2255 21.1219 18.4351Z" fill="white"/>
<path d="M13.3633 25.3971C8.19093 23.5404 5.53837 17.7712 7.46154 12.6651C8.45623 9.87994 10.6445 7.75799 13.3633 6.7633C13.6286 6.63073 13.7612 6.43179 13.7612 6.10013V5.1718C13.7612 4.9065 13.6286 4.70756 13.3633 4.64136C13.2969 4.64136 13.1644 4.64136 13.098 4.70756C6.79836 6.69694 3.35006 13.3946 5.33944 19.6942C6.53306 23.4077 9.38455 26.2592 13.098 27.4528C13.3633 27.5854 13.6286 27.4528 13.6948 27.1875C13.7612 27.1213 13.7612 27.0549 13.7612 26.9224V25.9939C13.7612 25.7949 13.5622 25.5298 13.3633 25.3971ZM20.3925 4.70756C20.1272 4.57499 19.8619 4.70756 19.7957 4.97287C19.7293 5.03923 19.7293 5.10544 19.7293 5.23817V6.16649C19.7293 6.43179 19.9282 6.69694 20.1272 6.82967C25.2996 8.68631 27.9521 14.4555 26.0289 19.5617C25.0342 22.3468 22.8459 24.4687 20.1272 25.4634C19.8619 25.596 19.7293 25.7949 19.7293 26.1266V27.0549C19.7293 27.3202 19.8619 27.5192 20.1272 27.5854C20.1935 27.5854 20.3261 27.5854 20.3925 27.5192C26.6921 25.5298 30.1404 18.8321 28.151 12.5325C26.9574 8.75268 24.0396 5.90119 20.3925 4.70756Z" fill="white"/>
</svg>
