<svg width="32" height="32" viewBox="0 0 32 32" fill="none" xmlns="http://www.w3.org/2000/svg">
<circle cx="16.0451" cy="15.915" r="15.2784" fill="#F4F4F4" stroke="#262138" stroke-width="1.2733"/>
<path d="M21.5737 12.9634C21.4032 11.1359 19.8171 10.5257 17.8066 10.353L17.8193 7.81908L16.2609 7.82101L16.2486 10.2874C15.8397 10.2874 15.4198 10.2943 15.0049 10.3043L15.0173 7.82096L13.4589 7.82288L13.4462 10.3568C13.1074 10.3647 12.7767 10.3706 12.453 10.3706L12.451 10.3627L10.3044 10.3626L10.2985 12.0105C10.2985 12.0105 11.4471 11.9878 11.431 12.0086C12.0613 12.0086 12.2658 12.3707 12.3222 12.6853L12.3067 15.5694C12.3498 15.5714 12.4049 15.5704 12.471 15.5793L12.3046 15.5783L12.2858 19.6212C12.2577 19.8177 12.1397 20.1331 11.6968 20.1331C11.7177 20.149 10.5643 20.1351 10.5643 20.1351L10.2447 21.9784L12.2791 21.9726C12.6579 21.9716 13.0257 21.9775 13.3925 21.9795L13.3826 24.5422L14.937 24.5413L14.9497 22.0074C15.3776 22.0153 15.7914 22.0183 16.1923 22.0203L16.1807 24.5413L17.7391 24.5394L17.7499 21.9807C20.3703 21.83 22.2058 21.1743 22.4435 18.7406C22.6364 16.7812 21.7091 15.9071 20.2248 15.5538C21.1312 15.1024 21.6998 14.3008 21.5737 12.9634ZM19.3674 18.4438C19.3591 20.3576 16.0481 20.1442 14.9918 20.1442L15.0091 16.7501C16.0654 16.7501 19.3762 16.4457 19.3674 18.4438ZM18.6657 13.6568C18.6573 15.398 15.8944 15.1965 15.0175 15.1984L15.0321 12.1208C15.913 12.1179 18.6765 11.8392 18.6657 13.6568Z" fill="#F19241"/>
<path fill-rule="evenodd" clip-rule="evenodd" d="M15.9655 28.3283C19.1541 28.3283 22.0601 27.1183 24.2494 25.1325L25.1508 26.0338C22.7302 28.2496 19.5057 29.6016 15.9655 29.6016C12.463 29.6016 9.26959 28.2783 6.85794 26.1044L7.75964 25.2027C9.93973 27.1468 12.8146 28.3283 15.9655 28.3283ZM24.1605 6.77621C21.9817 4.83784 19.1111 3.66026 15.9655 3.66026C12.8576 3.66026 10.0183 4.80971 7.84928 6.70667L6.94709 5.80448C9.34803 3.67797 12.506 2.38696 15.9655 2.38696C19.4628 2.38696 22.6519 3.70632 25.0623 5.87446L24.1605 6.77621ZM25.1739 7.78844C27.118 9.96854 28.2995 12.8434 28.2995 15.9943C28.2995 19.1021 27.1501 21.9415 25.2531 24.1105L26.1553 25.0127C28.2818 22.6117 29.5728 19.4538 29.5728 15.9943C29.5728 12.4918 28.2495 9.2984 26.0756 6.88675L25.1739 7.78844ZM6.7474 24.1893C4.80903 22.0105 3.63145 19.1399 3.63145 15.9943C3.63145 12.8057 4.84143 9.89964 6.82729 7.71033L5.92596 6.809C3.71014 9.22956 2.35815 12.454 2.35815 15.9943C2.35815 19.4916 3.67751 22.6807 5.84565 25.0911L6.7474 24.1893Z" fill="#5B5464"/>
</svg>
