<svg width="32" height="32" viewBox="0 0 32 32" fill="none" xmlns="http://www.w3.org/2000/svg">
<g clip-path="url(#clip0_6017_4499)">
<path d="M16.0647 31.3994C24.6168 31.3994 31.5496 24.4666 31.5496 15.9146C31.5496 7.3625 24.6168 0.429688 16.0647 0.429688C7.51264 0.429688 0.579834 7.3625 0.579834 15.9146C0.579834 24.4666 7.51264 31.3994 16.0647 31.3994Z" fill="white" stroke="#E2DDCC" stroke-width="1.2733"/>
<path fill-rule="evenodd" clip-rule="evenodd" d="M15.8461 4.7795C15.9696 4.69305 16.1323 4.68732 16.2616 4.76488L22.6276 8.58448C22.7427 8.65351 22.8131 8.77784 22.8131 8.91201V15.9146C22.8131 16.0488 22.7427 16.1731 22.6276 16.2421L16.2616 20.0617C16.1407 20.1343 15.9895 20.1343 15.8686 20.0617L9.50258 16.2421C9.38753 16.1731 9.31714 16.0488 9.31714 15.9146V9.54861C9.31714 9.42397 9.37795 9.30717 9.48006 9.2357L15.8461 4.7795ZM14.8455 6.41236L10.4108 9.51663L12.3612 10.6357L14.8455 6.41236ZM11.9738 11.2942L10.0811 10.2081V14.5119L11.9738 11.2942ZM10.2203 15.7819L16.0651 19.2888L21.9099 15.7819L16.0651 5.84575L10.2203 15.7819ZM17.1549 6.19173L19.3964 10.0023L21.6379 8.88155L17.1549 6.19173ZM22.0491 9.53003L19.7846 10.6623L22.0491 14.5119V9.53003ZM9.51091 17.492C9.63066 17.4242 9.77762 17.4261 9.89562 17.4969L16.0651 21.1986L22.2346 17.4969C22.3526 17.4261 22.4995 17.4242 22.6193 17.492C22.739 17.5598 22.8131 17.6868 22.8131 17.8244V22.9172C22.8131 23.0418 22.7522 23.1586 22.6501 23.2301L16.2841 27.6863C16.1526 27.7784 15.9776 27.7784 15.8461 27.6863L9.48006 23.2301C9.37795 23.1586 9.31714 23.0418 9.31714 22.9172V17.8244C9.31714 17.6868 9.39116 17.5598 9.51091 17.492ZM10.9591 19.0259L16.0651 26.6848L21.1711 19.0259L16.2616 21.9715C16.1407 22.0441 15.9895 22.0441 15.8686 21.9715L10.9591 19.0259ZM22.0491 19.0859L20.5656 21.3113L22.0491 22.231V19.0859ZM21.7374 22.9366L20.1416 21.9472L17.5086 25.8967L21.7374 22.9366ZM14.6216 25.8967L10.3928 22.9366L11.9886 21.9472L14.6216 25.8967ZM11.5646 21.3113L10.0811 19.0859V22.231L11.5646 21.3113Z" fill="url(#paint0_linear_6017_4499)"/>
</g>
<defs>
<linearGradient id="paint0_linear_6017_4499" x1="16.0651" y1="4.71045" x2="16.0651" y2="27.7554" gradientUnits="userSpaceOnUse">
<stop stop-color="#B45AFA"/>
<stop offset="0.525" stop-color="#626AE5"/>
<stop offset="1" stop-color="#29BBFA"/>
</linearGradient>
<clipPath id="clip0_6017_4499">
<rect width="31.83" height="31.83" fill="white" transform="translate(0.149902)"/>
</clipPath>
</defs>
</svg>
