<svg width="33" height="32" viewBox="0 0 33 32" fill="none" xmlns="http://www.w3.org/2000/svg">
<path d="M16.6875 6.36499L16.5593 6.80021V19.4282L16.6875 19.556L22.5491 16.0912L16.6875 6.36499Z" fill="#343434"/>
<path d="M16.6875 6.36499L10.8257 16.0912L16.6875 19.556V13.4268V6.36499Z" fill="#8C8C8C"/>
<path d="M16.6877 20.6664L16.6155 20.7545V25.2528L16.6877 25.4636L22.5529 17.2034L16.6877 20.6664Z" fill="#3C3C3B"/>
<path d="M16.6877 25.4636V20.6664L10.8259 17.2034L16.6877 25.4636Z" fill="#8C8C8C"/>
<path d="M16.6877 19.5553L22.5494 16.0904L16.6877 13.426V19.5553Z" fill="#141414"/>
<path d="M10.8259 16.0904L16.6877 19.5553V13.426L10.8259 16.0904Z" fill="#393939"/>
<path fill-rule="evenodd" clip-rule="evenodd" d="M16.5554 1.97352C8.85574 1.97352 2.6139 8.21536 2.6139 15.9151C2.6139 23.6148 8.85574 29.8566 16.5554 29.8566C24.2551 29.8566 30.497 23.6148 30.497 15.9151C30.497 8.21536 24.2551 1.97352 16.5554 1.97352ZM1.21338 15.9151C1.21338 7.44187 8.08225 0.572998 16.5554 0.572998C25.0286 0.572998 31.8975 7.44187 31.8975 15.9151C31.8975 24.3882 25.0286 31.2571 16.5554 31.2571C8.08225 31.2571 1.21338 24.3882 1.21338 15.9151Z" fill="#ED1F7A"/>
<path fill-rule="evenodd" clip-rule="evenodd" d="M16.5552 2.22816C8.99613 2.22816 2.8683 8.35599 2.8683 15.9151C2.8683 23.4741 8.99613 29.602 16.5552 29.602C24.1143 29.602 30.2421 23.4741 30.2421 15.9151C30.2421 8.35599 24.1143 2.22816 16.5552 2.22816ZM0.958496 15.9151C0.958496 7.30124 7.94138 0.318359 16.5552 0.318359C25.169 0.318359 32.1519 7.30124 32.1519 15.9151C32.1519 24.5289 25.169 31.5118 16.5552 31.5118C7.94138 31.5118 0.958496 24.5289 0.958496 15.9151ZM2.61366 15.9151C2.61366 8.21536 8.8555 1.97352 16.5552 1.97352C24.2549 1.97352 30.4967 8.21536 30.4967 15.9151C30.4967 23.6148 24.2549 29.8566 16.5552 29.8566C8.8555 29.8566 2.61366 23.6148 2.61366 15.9151ZM16.5552 0.572999C8.08201 0.572999 1.21314 7.44187 1.21314 15.9151C1.21314 24.3882 8.08201 31.2571 16.5552 31.2571C25.0284 31.2571 31.8973 24.3882 31.8973 15.9151C31.8973 7.44187 25.0284 0.572999 16.5552 0.572999Z" fill="black"/>
</svg>
