<svg width="33" height="32" viewBox="0 0 33 32" fill="none" xmlns="http://www.w3.org/2000/svg">
<path d="M16.385 31.83C14.2368 31.83 12.1527 31.4089 10.1899 30.5791C8.29441 29.7773 6.5932 28.6297 5.13117 27.1688C3.67026 25.7079 2.52265 24.0056 1.72089 22.1101C0.891062 20.1472 0.469971 18.0631 0.469971 15.915C0.469971 13.7669 0.891062 11.6828 1.72089 9.71991C2.52265 7.82444 3.67026 6.12323 5.13117 4.6612C6.5932 3.20029 8.29441 2.05268 10.1899 1.25092C12.1527 0.421091 14.2368 0 16.385 0C18.5331 0 20.6172 0.421091 22.5801 1.25092C24.4755 2.05268 26.1767 3.20029 27.6388 4.6612C29.0997 6.1221 30.2473 7.82444 31.0491 9.71991C31.8789 11.6828 32.3 13.7669 32.3 15.915C32.3 18.0631 31.8789 20.1472 31.0491 22.1101C30.2473 24.0056 29.0997 25.7068 27.6388 27.1688C26.1779 28.6297 24.4755 29.7773 22.5801 30.5791C20.6172 31.41 18.5331 31.83 16.385 31.83Z" fill="white"/>
<path d="M16.3852 30.9867C24.709 30.9867 31.4569 24.2388 31.4569 15.915C31.4569 7.59109 24.709 0.843262 16.3852 0.843262C8.0613 0.843262 1.31348 7.59109 1.31348 15.915C1.31348 24.2388 8.0613 30.9867 16.3852 30.9867Z" fill="black"/>
<path d="M16.7554 13.0837V20.0278L23.5535 15.9079L16.7554 13.0837Z" fill="white"/>
<path d="M16.7551 12.3002L23.4915 15.0996L21.8812 12.4743L25.305 9.05052L23.259 7.00346L20.326 9.93762L16.7551 4.11646V12.3002Z" fill="white"/>
<path d="M16.0322 20.0278V13.0837L9.23413 15.9079L16.0322 20.0278Z" fill="white"/>
<path d="M9.29568 15.0996L16.032 12.3002V4.11646L12.4623 9.93762L9.52812 7.00346L7.48218 9.05052L10.9059 12.4731L9.29568 15.0996Z" fill="white"/>
<path d="M23.4769 18.0698L16.7551 22.1437V27.5393L19.5209 23.6417L22.4079 26.5287L24.4538 24.4828L21.2198 21.2488L23.4769 18.0698Z" fill="white"/>
<path d="M16.0319 22.1437L9.31018 18.0698L11.5672 21.2488L8.33325 24.4828L10.3792 26.5287L13.2662 23.6428L16.0319 27.5382V22.1437Z" fill="white"/>
</svg>
