<svg width="33" height="33" viewBox="0 0 33 33" fill="none" xmlns="http://www.w3.org/2000/svg">
<path d="M27.8634 20.3705C27.8634 27.3731 22.8384 32.2114 16.4044 32.2114C9.97042 32.2114 4.946 28.0097 4.9458 20.3705C4.94573 17.8241 6.219 15.2777 6.90615 14.6412C10.6752 14.641 12.0727 14.6412 16.4044 14.6412C20.7361 14.6412 21.4974 14.6412 25.903 14.6412C27.2268 16.5509 27.8634 17.8241 27.8634 20.3705Z" fill="url(#paint0_radial_6017_4467)"/>
<path d="M16.4047 19.7338V8.91162L6.85571 14.641L16.4047 19.7338Z" fill="#D9D9D9"/>
<path d="M16.4047 19.7338V8.91162L6.85571 14.641L16.4047 19.7338Z" fill="url(#paint1_radial_6017_4467)"/>
<path d="M16.4046 19.7338V8.91162L25.9536 14.641L16.4046 19.7338Z" fill="url(#paint2_radial_6017_4467)"/>
<g style="mix-blend-mode:darken">
<path d="M16.4046 16.5509V-0.000732422L8.76538 12.0947L16.4046 16.5509Z" fill="url(#paint3_linear_6017_4467)"/>
</g>
<g style="mix-blend-mode:overlay">
<path d="M16.4046 16.5508V7.63843L8.76538 12.0946L16.4046 16.5508Z" fill="#D9D9D9"/>
<path d="M16.4046 16.5508V7.63843L8.76538 12.0946L16.4046 16.5508Z" fill="url(#paint4_linear_6017_4467)"/>
</g>
<g style="mix-blend-mode:darken">
<path d="M16.4045 16.5509V-0.000732422L24.0437 12.0947L16.4045 16.5509Z" fill="url(#paint5_linear_6017_4467)"/>
</g>
<g style="mix-blend-mode:overlay" opacity="0.5">
<path d="M16.4045 16.5508V7.63843L24.0437 12.0946L16.4045 16.5508Z" fill="#D9D9D9"/>
<path d="M16.4045 16.5508V7.63843L24.0437 12.0946L16.4045 16.5508Z" fill="url(#paint6_linear_6017_4467)"/>
</g>
<defs>
<radialGradient id="paint0_radial_6017_4467" cx="0" cy="0" r="1" gradientUnits="userSpaceOnUse" gradientTransform="translate(16.4046 32.4659) rotate(-90) scale(16.5516 20.3896)">
<stop stop-color="#56F2FF"/>
<stop offset="1" stop-color="#4A8CEA"/>
</radialGradient>
<radialGradient id="paint1_radial_6017_4467" cx="0" cy="0" r="1" gradientUnits="userSpaceOnUse" gradientTransform="translate(16.4047 15.2776) rotate(180) scale(9.549 8.42559)">
<stop stop-color="#56C3F5"/>
<stop offset="1" stop-color="#56A2EE"/>
</radialGradient>
<radialGradient id="paint2_radial_6017_4467" cx="0" cy="0" r="1" gradientUnits="userSpaceOnUse" gradientTransform="translate(16.4046 15.2776) scale(9.549 8.42559)">
<stop stop-color="#56C3F5"/>
<stop offset="1" stop-color="#56A2EE"/>
</radialGradient>
<linearGradient id="paint3_linear_6017_4467" x1="12.585" y1="-0.000732422" x2="12.585" y2="16.5509" gradientUnits="userSpaceOnUse">
<stop stop-color="#FFE336"/>
<stop offset="0.409" stop-color="#F0E142"/>
<stop offset="0.784" stop-color="#9CD888"/>
<stop offset="1" stop-color="#38C8BC"/>
</linearGradient>
<linearGradient id="paint4_linear_6017_4467" x1="12.585" y1="-0.000772124" x2="12.585" y2="16.5508" gradientUnits="userSpaceOnUse">
<stop stop-color="#FFE336"/>
<stop offset="0.409" stop-color="#F0E142"/>
<stop offset="0.784" stop-color="#9CD888"/>
<stop offset="1" stop-color="#38C8BC"/>
</linearGradient>
<linearGradient id="paint5_linear_6017_4467" x1="20.2241" y1="-0.000732422" x2="20.2241" y2="16.5509" gradientUnits="userSpaceOnUse">
<stop stop-color="#FF728F"/>
<stop offset="0.374626" stop-color="#FF7F72"/>
<stop offset="0.713979" stop-color="#B08CB1"/>
<stop offset="1" stop-color="#4591E8"/>
</linearGradient>
<linearGradient id="paint6_linear_6017_4467" x1="20.2241" y1="-0.000772124" x2="20.2241" y2="16.5508" gradientUnits="userSpaceOnUse">
<stop stop-color="#FF728F"/>
<stop offset="0.374626" stop-color="#FF7F72"/>
<stop offset="0.713979" stop-color="#B08CB1"/>
<stop offset="1" stop-color="#4591E8"/>
</linearGradient>
</defs>
</svg>
