<svg width="21" height="20" viewBox="0 0 21 20" fill="none" xmlns="http://www.w3.org/2000/svg">
<path d="M17.4548 3.65379C19.7006 6.9885 20.8235 10.7315 20.4152 15.0531C20.4152 15.0531 20.4152 15.0871 20.3811 15.0871C18.8839 16.21 17.1825 17.0607 15.3791 17.6051C15.345 17.6392 15.345 17.6051 15.311 17.6051C14.9367 17.0607 14.5964 16.5162 14.2902 15.9378C14.2902 15.9038 14.2902 15.9038 14.2902 15.8697L14.3242 15.8357C14.8687 15.6315 15.3791 15.3933 15.8895 15.0871C15.8895 15.0871 15.9235 15.0871 15.9235 15.0531C15.9235 15.019 15.9235 15.019 15.8895 14.985C15.7874 14.9169 15.6853 14.8489 15.5832 14.7468C15.5492 14.7468 15.5492 14.7468 15.5152 14.7468C12.2825 16.244 8.74367 16.244 5.47701 14.7468C5.44298 14.7468 5.40895 14.7468 5.40895 14.7468C5.30687 14.8489 5.20479 14.9169 5.1027 14.985C5.06868 15.019 5.06868 15.019 5.06868 15.0531C5.06868 15.0871 5.06868 15.0871 5.1027 15.0871C5.57909 15.3933 6.12353 15.6315 6.66798 15.8357C6.66798 15.8357 6.66798 15.8697 6.70201 15.8697C6.70201 15.9038 6.70201 15.9038 6.70201 15.9378C6.39576 16.5162 6.05548 17.0607 5.68117 17.6051C5.64715 17.6051 5.61312 17.6392 5.61312 17.6051C3.80965 17.0607 2.10826 16.21 0.611045 15.0871C0.577018 15.0871 0.577018 15.0531 0.577018 15.0531C0.23674 11.31 0.951322 7.53294 3.53743 3.65379C3.53743 3.65379 3.53743 3.65379 3.57146 3.65379C4.86451 3.04129 6.22562 2.63296 7.62075 2.39476C7.65478 2.36073 7.68881 2.39476 7.68881 2.39476C7.89298 2.73504 8.06311 3.10934 8.19922 3.44962C9.73047 3.21143 11.2617 3.21143 12.793 3.44962C12.9291 3.10934 13.0992 2.73504 13.3034 2.39476C13.3034 2.39476 13.3374 2.36073 13.3714 2.39476C14.7666 2.63296 16.1277 3.04129 17.4207 3.65379C17.4548 3.65379 17.4548 3.65379 17.4548 3.65379ZM7.17839 12.7732C8.1652 12.7732 8.98186 11.8545 8.98186 10.7656C8.98186 9.64266 8.19922 8.75794 7.17839 8.75794C6.19159 8.75794 5.37492 9.64266 5.37492 10.7656C5.37492 11.8545 6.19159 12.7732 7.17839 12.7732ZM13.8138 12.7732C14.8346 12.7732 15.6173 11.8545 15.6173 10.7656C15.6513 9.64266 14.8346 8.75794 13.8138 8.75794C12.827 8.75794 12.0444 9.64266 12.0444 10.7656C12.0444 11.8545 12.827 12.7732 13.8138 12.7732Z" fill="#1F180F"/>
</svg>
